# xmcd
#
# Track frame offsets:
#	150
#	10125
#	20550
#	28500
#	39975
#	53400
#	66308
#	79388
#	92506
#	103081
#	112591
#	125724
#
# Disc length: 1811 seconds
#
# Revision: 1
# Processed by: cddbd v1.5.2PL0 Copyright (c) Steve Scherf et al.
# Submitted via: audiograbber 1.83.01
#
DISCID=8d07110c
DTITLE=Dean Martin - Somewhere There's A Someone
DYEAR=1966
DGENRE=Country
TTITLE0=Somewhere There's A Someone
TTITLE1=Any Time
TTITLE2=Bule Blue Day
TTITLE3=I'm So Lonesome I Could Cry
TTITLE4=Candy Kisses
TTITLE5=I Can't Help It
TTITLE6=That Old Clock On The Wall
TTITLE7=Bouquet Of Roses
TTITLE8=I Walk The Line
TTITLE9=Just A Little Lovin'
TTITLE10=Room Full Of Roses
TTITLE11=Second Hand Rose (Second Hand Heart)
EXTD=
EXTT0=
EXTT1=
EXTT2=
EXTT3=
EXTT4=
EXTT5=
EXTT6=
EXTT7=
EXTT8=
EXTT9=
EXTT10=
EXTT11=
PLAYORDER=
